<svg xmlns="http://www.w3.org/2000/svg" xmlns:xlink="http://www.w3.org/1999/xlink" id="Layer_1" x="0px" y="0px" width="300px" height="180.4px" viewBox="0 0 300 180.4" style="enable-background:new 0 0 300 180.4;" xml:space="preserve"> <style type="text/css"> .st0{fill:#145E43;} </style> <g> <g> <path class="st0" d="M28.1,53.1h17.1l12.7,52.1H43.4L42,96H31.2l-1.4,9.1H15.4L28.1,53.1z M36.7,63.7h-0.2l-3.7,22.1h7.6 L36.7,63.7z"></path> </g> <g> <path class="st0" d="M59.1,53.1h20.5c9.7,0,14.2,5.2,14.2,13c0,5.6-2.4,10.5-8.2,11.7v0.1c6.9,0.7,9.6,6.5,9.6,11.9 c0,9.1-4.4,15.4-15.7,15.4H59.1V53.1z M72.7,73.5H76c2.8,0,4.3-2.5,4.3-5.3c0-2.9-1.5-5.4-4.3-5.4h-3.3V73.5z M72.7,95.4h3.8 c2.5,0,4.8-2.2,4.8-6.4c0-4-2.3-6.3-4.8-6.3h-3.8V95.4z"></path> </g> <g> <path class="st0" d="M99.1,53.1h21.2c10.4,0,14.3,5.8,14.3,13.9c0,6.9-2.7,11.5-8.9,12.4v0.1c6.6,0.6,8.5,4.7,8.5,11.7v4.4 c0,2.7,0,6.2,0.7,7.2c0.4,0.6,0.6,1.2,1.5,1.6v0.7H122c-1.3-2.8-1.3-7.7-1.3-9.9v-3.5c0-5.9-1.2-7.4-4.4-7.4h-3.6v20.9H99.1V53.1z M112.7,75.1h2.7c3.9,0,5.7-2.5,5.7-6.2c0-4.2-1.7-6.1-5.8-6.1h-2.6C112.7,62.8,112.7,75.1,112.7,75.1z"></path> </g> <g> <path class="st0" d="M148,53.1h17.1l12.7,52.1h-14.4L162,96h-10.8l-1.4,9.1h-14.4L148,53.1z M156.6,63.7h-0.1l-3.7,22.1h7.6 L156.6,63.7z"></path> </g> <g> <path class="st0" d="M171.7,53.1h14.4l5.5,39.3h0.1l5.5-39.3h14.4l-11.2,52.1h-17.5L171.7,53.1z"></path> </g> <g> <path class="st0" d="M212.4,53.1h30.9v11.1H226v8.9h16.2v10.7H226v10.4h17.9v11.1h-31.5V53.1z"></path> </g> <g> <path class="st0" d="M276.8,113.8l-7.5-8c-0.7,0.1-1.5,0.2-2.3,0.3c-0.8,0.1-1.7,0.1-2.5,0.1c-13.9,0-18.6-7.6-18.6-27.1 S250.6,52,264.5,52s18.6,7.6,18.6,27.1c0,10-1.2,16.9-4.4,21.2l6.3,6.5L276.8,113.8z M264.5,97c4.2,0,4.6-3.8,4.6-17.9 s-0.4-17.9-4.6-17.9s-4.6,3.8-4.6,17.9S260.3,97,264.5,97z"></path> </g> </g> <g> <path class="st0" d="M44.9,125.8h-9.3l-2,4.5h-1.8l7.7-16.8h1.8l7.7,16.8h-1.9L44.9,125.8z M44.3,124.4l-4-9l-4,9H44.3z"></path> <path class="st0" d="M65.5,113.5v16.8H64l-10.8-13.6v13.6h-1.8v-16.8h1.5l10.8,13.6v-13.6H65.5z"></path> <path class="st0" d="M81.3,125.8H72l-2,4.5h-1.8l7.7-16.8h1.8l7.7,16.8h-1.9L81.3,125.8z M80.7,124.4l-4-9l-4,9H80.7z"></path> <path class="st0" d="M87.9,113.5h1.8v16.8h-1.8V113.5z"></path> <path class="st0" d="M96.1,129.8c-1.1-0.4-2-0.9-2.6-1.6l0.7-1.4c0.6,0.6,1.4,1.1,2.4,1.5s2,0.6,3.1,0.6c1.5,0,2.6-0.3,3.4-0.8 c0.8-0.6,1.1-1.3,1.1-2.1c0-0.7-0.2-1.2-0.6-1.6s-0.9-0.7-1.5-0.9c-0.6-0.2-1.4-0.5-2.5-0.7c-1.3-0.3-2.3-0.6-3-0.9 c-0.8-0.3-1.4-0.7-1.9-1.4c-0.5-0.6-0.8-1.4-0.8-2.5c0-0.8,0.2-1.6,0.7-2.3c0.4-0.7,1.1-1.3,2.1-1.7c0.9-0.4,2.1-0.6,3.5-0.6 c1,0,1.9,0.1,2.8,0.4s1.7,0.6,2.4,1.1l-0.6,1.4c-0.7-0.5-1.5-0.8-2.3-1s-1.6-0.3-2.3-0.3c-1.5,0-2.6,0.3-3.3,0.9 c-0.7,0.6-1.1,1.3-1.1,2.2c0,0.7,0.2,1.2,0.6,1.6s0.9,0.7,1.5,0.9s1.4,0.5,2.5,0.7c1.2,0.3,2.2,0.6,3,0.9s1.4,0.7,1.9,1.3 s0.8,1.4,0.8,2.4c0,0.8-0.2,1.6-0.7,2.3c-0.5,0.7-1.2,1.2-2.1,1.7c-0.9,0.4-2.1,0.6-3.5,0.6C98.4,130.4,97.2,130.2,96.1,129.8z"></path> <path class="st0" d="M118.6,129.3c-1.3-0.7-2.4-1.8-3.1-3.1c-0.8-1.3-1.1-2.8-1.1-4.4s0.4-3.1,1.1-4.4c0.8-1.3,1.8-2.3,3.2-3.1 c1.3-0.7,2.8-1.1,4.5-1.1c1.2,0,2.4,0.2,3.5,0.6s1.9,1,2.7,1.8l-1.1,1.1c-1.3-1.3-3-2-5-2c-1.3,0-2.5,0.3-3.6,0.9s-1.9,1.4-2.6,2.5 s-0.9,2.2-0.9,3.5s0.3,2.5,0.9,3.5s1.5,1.9,2.6,2.5c1.1,0.6,2.3,0.9,3.6,0.9c2,0,3.7-0.7,5-2l1.1,1.1c-0.7,0.8-1.6,1.4-2.7,1.8 s-2.2,0.6-3.5,0.6C121.4,130.4,119.9,130.1,118.6,129.3z"></path> <path class="st0" d="M132.9,113.5h1.8v16.8h-1.8V113.5z"></path> <path class="st0" d="M151.9,128.8v1.5H140v-16.8h11.5v1.5h-9.7v6h8.7v1.5h-8.7v6.2h10.1V128.8z"></path> <path class="st0" d="M170,113.5v16.8h-1.5l-10.8-13.6v13.6h-1.8v-16.8h1.5l10.8,13.6v-13.6H170z"></path> <path class="st0" d="M178.6,115.1h-5.9v-1.5h13.6v1.5h-5.9v15.2h-1.8L178.6,115.1L178.6,115.1z"></path> <path class="st0" d="M191.6,109.2h2.3l-3.9,3h-1.7L191.6,109.2z M189,113.5h1.8v16.8H189V113.5z"></path> <path class="st0" d="M197.8,115.1v6.6h8.7v1.5h-8.7v7.1H196v-16.8h11.5v1.5L197.8,115.1L197.8,115.1z"></path> <path class="st0" d="M211.1,113.5h1.8v16.8h-1.8V113.5z"></path> <path class="st0" d="M221,129.3c-1.3-0.7-2.4-1.8-3.1-3.1c-0.8-1.3-1.1-2.8-1.1-4.4s0.4-3.1,1.1-4.4c0.8-1.3,1.8-2.3,3.2-3.1 c1.3-0.7,2.8-1.1,4.5-1.1c1.2,0,2.4,0.2,3.5,0.6s2,1,2.7,1.8l-1.1,1.1c-1.3-1.3-3-2-5-2c-1.3,0-2.5,0.3-3.6,0.9s-1.9,1.4-2.6,2.5 c-0.6,1.1-0.9,2.2-0.9,3.5s0.3,2.5,0.9,3.5c0.6,1.1,1.5,1.9,2.6,2.5c1.1,0.6,2.3,0.9,3.6,0.9c2,0,3.7-0.7,5-2l1.1,1.1 c-0.7,0.8-1.6,1.4-2.7,1.8s-2.2,0.6-3.5,0.6C223.9,130.4,222.4,130.1,221,129.3z"></path> <path class="st0" d="M237.8,129.3c-1.4-0.7-2.4-1.8-3.2-3.1c-0.8-1.3-1.1-2.7-1.1-4.4c0-1.6,0.4-3.1,1.1-4.4 c0.8-1.3,1.8-2.3,3.2-3.1s2.9-1.1,4.5-1.1s3.2,0.4,4.5,1.1s2.4,1.8,3.2,3.1c0.8,1.3,1.2,2.8,1.2,4.4s-0.4,3.1-1.2,4.4 s-1.8,2.3-3.2,3.1c-1.3,0.7-2.8,1.1-4.5,1.1S239.2,130.1,237.8,129.3z M245.9,128c1.1-0.6,1.9-1.4,2.5-2.5s0.9-2.2,0.9-3.6 c0-1.3-0.3-2.5-0.9-3.6c-0.6-1.1-1.4-1.9-2.5-2.5s-2.3-0.9-3.6-0.9s-2.5,0.3-3.6,0.9s-1.9,1.4-2.5,2.5s-0.9,2.2-0.9,3.6 c0,1.3,0.3,2.5,0.9,3.6c0.6,1.1,1.5,1.9,2.5,2.5c1.1,0.6,2.3,0.9,3.6,0.9C243.7,128.9,244.9,128.6,245.9,128z"></path> <path class="st0" d="M256,129.8c-1.1-0.4-2-0.9-2.6-1.6l0.7-1.4c0.6,0.6,1.4,1.1,2.4,1.5c1,0.4,2,0.6,3.1,0.6 c1.5,0,2.6-0.3,3.4-0.8c0.8-0.6,1.1-1.3,1.1-2.1c0-0.7-0.2-1.2-0.6-1.6s-0.9-0.7-1.5-0.9c-0.6-0.2-1.4-0.5-2.5-0.7 c-1.3-0.3-2.3-0.6-3-0.9c-0.8-0.3-1.4-0.7-1.9-1.4c-0.5-0.6-0.8-1.4-0.8-2.5c0-0.8,0.2-1.6,0.7-2.3s1.1-1.3,2.1-1.7 c0.9-0.4,2.1-0.6,3.5-0.6c1,0,1.9,0.1,2.8,0.4s1.7,0.6,2.4,1.1l-0.6,1.4c-0.7-0.5-1.5-0.8-2.3-1s-1.6-0.3-2.3-0.3 c-1.5,0-2.6,0.3-3.3,0.9c-0.7,0.6-1.1,1.3-1.1,2.2c0,0.7,0.2,1.2,0.6,1.6c0.4,0.4,0.9,0.7,1.5,0.9s1.4,0.5,2.5,0.7 c1.2,0.3,2.2,0.6,3,0.9s1.4,0.7,1.9,1.3s0.8,1.4,0.8,2.4c0,0.8-0.2,1.6-0.7,2.3c-0.5,0.7-1.2,1.2-2.1,1.7c-0.9,0.4-2.1,0.6-3.5,0.6 C258.4,130.4,257.2,130.2,256,129.8z"></path> </g> </svg>