<svg xmlns="http://www.w3.org/2000/svg" xmlns:xlink="http://www.w3.org/1999/xlink" id="Layer_1" x="0px" y="0px" width="797px" height="271px" viewBox="0 0 797 271" style="enable-background:new 0 0 797 271;" xml:space="preserve"> <style type="text/css"> .st0{fill:#DABA80;} </style> <g> <g> <g> <path class="st0" d="M111.1,171.5c0,0-9.6-14-4.2-37.2s31.6-42.5,40.1-44.5v6.3C147,96.1,97.9,121.6,111.1,171.5z"></path> </g> <g> <path class="st0" d="M269.1,171.5c0,0,9.6-14,4.2-37.2c-5.4-23.2-31.6-42.5-40.1-44.5v6.3C233.3,96.1,282.3,121.6,269.1,171.5z"></path> </g> <g> <path class="st0" d="M233.2,167.5c-0.6,0-1.4-0.1-2.2-0.3c-5.4-1.5-7.8-4.8-9.8-7.4c-1.3-1.8-2.4-3.2-4.1-3.8 c-0.7-0.2-1.4-0.5-2.2-0.7c-4.1-1.2-8.8-2.6-11.9-9.9c-0.1,0-0.3-0.1-0.5,0c-0.5,0.1-1.7,0.7-3.3,3.3c-0.5,0.9-1.1,1.8-1.6,2.6 c-2.7,4.5-5.3,8.7-5.3,11.5H190c0-3.5,2.6-7.8,5.7-12.8c0.5-0.9,1.1-1.7,1.6-2.6c1.6-2.7,3.3-4.2,5.1-4.4 c1.6-0.2,2.5,0.7,2.6,0.8l0.2,0.2l0.1,0.2c2.7,6.6,6.5,7.7,10.5,8.9c0.8,0.2,1.5,0.4,2.3,0.7c2.4,0.8,3.8,2.7,5.2,4.6 c1.9,2.6,3.9,5.2,8.5,6.5c2.1,0.6,2.8-0.1,3-0.3c1.9-1.9,0.7-8.5-0.5-12.1c-0.1-0.2-3.5-13.7-4.8-17.4c-1.3-3.5-3.5-5.8-3.5-5.8 l-0.7-0.8l4.2-5.7l-3,0.2l1-3.3c-10.6,1.1-21.8-4.7-23.4-5.5c-19.6-4.2-40.6,8.4-47,13.7c-5.5,4.2-22.4,24.1-22.5,24.3l-1.9-1.6 c0.7-0.8,17.2-20.3,22.7-24.7c6.7-5.5,28.6-18.6,49.3-14.1h0.2l0.2,0.1c0.1,0.1,13,7.1,23.8,5l2-0.4l-1.1,3.7l4.8-0.3l-6.2,8.3 c0.9,1.1,2.4,3.1,3.4,5.9c1.4,3.8,4.8,17,4.9,17.6c0.3,1,3.4,11-0.1,14.5C235.9,166.8,234.8,167.5,233.2,167.5z"></path> </g> <g> <g> <path class="st0" d="M302.1,94.1h24l17.8,73.2h-20.3l-1.9-12.8h-15.2l-1.9,12.8h-20.3L302.1,94.1z M314.2,109H314l-5.2,31.1 h10.7L314.2,109z"></path> </g> <g> <path class="st0" d="M345.6,94.1h28.8c13.6,0,20,7.3,20,18.2c0,7.8-3.4,14.8-11.5,16.4v0.2c9.6,0.9,13.5,9.1,13.5,16.7 c0,12.7-6.1,21.6-22,21.6h-28.8V94.1z M364.7,122.8h4.6c3.9,0,6-3.5,6-7.4c0-4.1-2.1-7.6-6-7.6h-4.6V122.8z M364.7,153.5h5.3 c3.5,0,6.8-3.1,6.8-9c0-5.6-3.3-8.8-6.8-8.8h-5.3V153.5z"></path> </g> <g> <path class="st0" d="M401.8,94.1h29.8c14.6,0,20.1,8.2,20.1,19.5c0,9.7-3.8,16.1-12.5,17.4v0.2c9.2,0.8,12,6.7,12,16.4v6.3 c0,3.8,0,8.7,0.9,10.1c0.5,0.8,0.9,1.6,2.1,2.2v1H434c-1.9-3.9-1.9-10.9-1.9-13.9v-4.9c0-8.3-1.6-10.5-6.2-10.5h-5v29.3h-19.1 V94.1z M420.9,125h3.8c5.4,0,8-3.5,8-8.7c0-5.9-2.4-8.5-8.1-8.5h-3.7L420.9,125L420.9,125z"></path> </g> <g> <path class="st0" d="M470.6,94.1h24l17.8,73.2h-20.3l-1.9-12.8H475l-2,12.8h-20.3L470.6,94.1z M482.7,109h-0.2l-5.2,31.1H488 L482.7,109z"></path> </g> <g> <path class="st0" d="M503.8,94.1h20.3l7.7,55.1h0.2l7.7-55.1H560l-15.8,73.2h-24.6L503.8,94.1z"></path> </g> <g> <path class="st0" d="M561,94.1h43.3v15.6H580v12.5h22.8v15H580v14.6h25.2v15.6H561V94.1z"></path> </g> <g> <path class="st0" d="M651.5,179.4L641,168.2c-1,0.1-2.2,0.3-3.3,0.4c-1.1,0.1-2.3,0.1-3.6,0.1c-19.5,0-26.1-10.7-26.1-38 s6.7-38,26.1-38c19.5,0,26.1,10.7,26.1,38c0,14.1-1.7,23.7-6.1,29.7l8.8,9.1L651.5,179.4z M634.2,155.8c5.9,0,6.5-5.3,6.5-25.1 s-0.6-25.1-6.5-25.1s-6.5,5.3-6.5,25.1C627.7,150.4,628.3,155.8,634.2,155.8z"></path> </g> </g> </g> </g> </svg>